<svg xmlns="http://www.w3.org/2000/svg" viewBox="0 0 1000 1035" role="img">
  <path fill="#204050" fill-rule="evenodd" d="M536.6 -0.6 L522.3 19.8 L505.0 50.8 L495.7 61.3 L478.3 60.1 L450.4 27.3 L437.4 14.3 L433.7 11.8 L430.6 12.4 L431.8 68.2 L440.5 126.4 L629.5 125.8 L633.2 130.7 L636.9 130.7 L640.0 126.4 L646.2 101.6 L651.2 68.2 L652.4 12.4 L648.1 10.5 L644.4 15.5 L624.5 30.4 L597.3 60.1 L582.4 61.3 L574.3 54.5 L564.4 38.4 L560.7 35.9 L540.9 0.0 L537.8 -0.6ZM79.3 141.9 L65.7 145.6 L40.9 160.5 L24.2 176.0 L14.3 190.8 L4.3 214.4 L0.6 230.5 L0.6 263.9 L8.1 281.3 L24.8 300.5 L34.7 304.2 L47.1 303.0 L57.6 293.7 L61.3 286.2 L61.3 278.8 L52.7 266.4 L46.5 250.3 L46.5 229.2 L52.7 211.9 L66.9 193.9 L83.0 185.3 L107.8 182.8 L131.4 191.4 L148.1 208.2 L155.5 221.8 L159.2 234.2 L159.2 256.5 L138.2 313.5 L128.3 347.0 L120.8 402.7 L120.8 463.4 L123.9 470.3 L141.3 471.5 L153.7 475.2 L159.9 475.2 L161.7 473.4 L162.9 407.7 L171.6 345.7 L200.1 254.0 L198.9 215.6 L193.9 197.0 L187.7 183.4 L179.1 171.0 L161.1 155.5 L140.0 145.6 L130.1 143.1 L80.5 141.9ZM504.3 174.1 L396.5 179.1 L344.5 179.1 L332.1 182.8 L325.3 190.8 L321.6 203.2 L320.3 292.4 L322.8 312.3 L325.3 320.9 L329.6 325.3 L644.4 326.5 L672.9 327.8 L679.1 329.0 L684.6 333.3 L687.1 527.9 L684.6 540.3 L672.9 558.2 L660.5 564.4 L640.6 565.7 L591.1 563.2 L350.7 563.2 L343.9 567.5 L345.1 592.3 L342.6 655.5 L344.5 659.9 L349.4 662.3 L364.3 663.6 L432.5 663.6 L509.3 667.3 L584.9 666.0 L664.2 659.9 L723.7 659.9 L734.2 658.0 L735.4 599.8 L742.9 563.8 L754.0 534.1 L763.9 515.5 L775.1 500.6 L796.8 477.7 L816.6 464.1 L826.5 459.1 L833.3 458.5 L834.6 231.7 L832.1 192.1 L828.4 184.6 L820.3 180.3 L505.6 174.1ZM869.9 475.2 L836.4 486.4 L817.8 498.8 L803.6 513.0 L787.5 534.1 L777.6 553.9 L770.1 576.2 L762.7 618.3 L762.7 662.9 L765.2 679.1 L772.6 698.9 L777.6 703.8 L788.7 724.9 L807.9 745.4 L819.1 752.8 L843.9 763.9 L869.9 770.1 L894.7 770.1 L915.7 765.2 L938.0 755.3 L954.8 743.5 L975.8 717.5 L988.2 692.7 L994.4 670.4 L999.4 633.2 L999.4 602.2 L993.2 572.5 L980.8 541.5 L970.9 524.2 L961.0 511.8 L948.0 498.8 L920.7 482.7 L898.4 476.5 L871.1 475.2ZM119.0 498.8 L106.6 500.0 L96.7 503.7 L85.5 512.4 L72.5 527.9 L65.1 545.2 L62.6 558.9 L62.6 592.3 L68.8 608.4 L86.7 630.1 L104.1 638.8 L127.6 643.7 L166.0 641.3 L167.9 639.4 L167.9 591.1 L148.1 577.4 L141.9 568.8 L136.9 553.9 L138.2 532.8 L150.6 505.6 L147.5 502.5 L137.5 500.0 L120.2 498.8ZM184.6 517.3 L173.5 523.5 L167.9 530.4 L164.2 544.0 L166.7 551.4 L174.7 559.5 L182.2 564.4 L192.1 566.9 L203.2 564.4 L213.1 557.0 L222.4 542.8 L223.7 536.6 L206.9 519.8 L200.7 517.3 L185.9 517.3ZM886.6 557.6 L908.3 558.2 L924.4 564.4 L936.2 573.7 L946.1 587.4 L953.5 604.7 L956.0 624.5 L951.1 645.6 L938.7 666.7 L918.2 684.6 L907.1 688.4 L888.5 689.6 L887.2 687.1 L869.9 683.4 L864.9 677.2 L851.9 667.9 L842.0 651.8 L837.1 635.7 L837.1 624.5 L840.8 603.5 L847.0 588.6 L858.1 572.5 L864.9 566.9 L874.8 560.7 L886.0 558.2ZM245.4 563.2 L239.8 566.3 L236.1 575.0 L226.8 584.3 L206.9 592.9 L195.8 592.9 L192.7 594.8 L192.7 598.5 L195.2 601.0 L196.4 615.9 L196.4 630.7 L192.7 645.6 L194.5 653.7 L205.7 649.9 L239.2 649.9 L257.7 652.4 L315.4 651.8 L316.6 588.6 L320.3 565.1 L316.0 563.2 L246.6 563.2ZM894.7 586.7 L882.3 590.5 L875.5 597.3 L866.8 612.1 L865.6 619.6 L865.6 635.7 L869.3 645.6 L878.6 656.1 L886.0 659.9 L900.9 659.9 L913.3 652.4 L921.3 641.9 L926.3 627.0 L926.3 614.6 L921.3 601.0 L913.3 591.7 L895.9 586.7ZM125.2 676.0 L123.3 680.3 L124.5 736.1 L120.8 829.0 L122.1 964.1 L125.8 974.0 L131.4 979.6 L137.5 982.0 L151.2 979.6 L156.8 972.7 L159.2 962.8 L160.5 692.7 L162.9 677.8 L161.1 676.0 L126.4 676.0ZM708.8 688.4 L640.6 690.8 L630.7 693.3 L581.2 695.8 L467.2 695.8 L436.2 693.3 L333.3 694.5 L331.5 698.9 L334.0 701.4 L336.4 750.9 L341.4 770.8 L345.7 776.3 L376.7 782.5 L422.6 786.2 L448.6 792.4 L469.6 802.4 L482.7 812.9 L490.7 824.7 L499.4 829.6 L520.4 838.3 L535.3 840.8 L567.5 840.8 L605.9 828.4 L611.5 817.8 L629.5 802.4 L659.2 790.0 L689.0 785.0 L762.1 781.3 L768.9 765.8 L770.1 750.9 L747.8 712.5 L742.9 695.2 L736.1 689.6 L710.0 688.4ZM358.1 808.6 L356.3 815.4 L360.0 832.7 L360.0 855.0 L351.3 888.5 L351.9 894.1 L436.2 895.3 L453.5 897.8 L458.5 897.8 L460.3 894.7 L460.3 830.2 L456.0 825.9 L446.1 822.2 L444.9 819.7 L432.5 816.0 L359.4 808.6ZM728.6 811.0 L675.3 814.7 L650.6 822.2 L641.3 830.2 L643.7 845.1 L644.4 897.8 L755.3 894.7 L746.6 863.7 L746.6 826.5 L749.1 815.4 L746.0 811.0 L729.9 811.0ZM345.7 920.1 L340.1 924.4 L338.9 928.1 L338.9 957.9 L353.2 964.7 L356.3 969.0 L357.5 975.2 L353.8 982.7 L349.4 985.7 L330.9 989.5 L309.8 998.1 L294.9 1008.1 L285.6 1019.8 L286.2 1030.4 L340.8 1034.1 L452.3 1031.6 L458.5 1030.4 L464.1 1019.8 L462.8 981.4 L460.3 965.3 L461.6 946.7 L460.3 925.7 L458.5 923.8 L428.7 921.3 L347.0 920.1ZM656.8 921.3 L644.4 922.6 L642.5 924.4 L642.5 950.4 L638.8 987.6 L638.8 1014.9 L641.3 1027.3 L648.1 1032.8 L680.3 1031.6 L750.9 1034.1 L786.9 1031.6 L812.9 1032.8 L820.9 1027.3 L818.5 1013.6 L805.5 1001.9 L783.1 991.9 L758.4 988.2 L750.3 982.7 L747.8 974.0 L750.3 966.5 L757.1 961.0 L763.3 961.0 L766.4 957.9 L765.2 924.4 L763.3 922.6 L733.6 921.3 L658.0 921.3Z"/>
  <path fill="#FAAE10" fill-rule="evenodd" d="M535.3 4.3 L502.5 57.0 L494.4 63.8 L483.3 63.8 L477.1 61.3 L442.4 21.7 L437.4 18.0 L431.8 19.8 L433.1 70.6 L436.8 97.9 L443.6 125.8 L597.3 123.3 L634.4 124.5 L640.0 119.0 L648.7 78.1 L651.2 18.6 L645.6 16.7 L628.3 29.1 L598.5 61.3 L591.1 63.8 L579.9 63.8 L571.9 59.5 L544.6 9.9 L540.3 4.3 L536.6 4.3ZM867.4 477.7 L846.3 483.9 L826.5 495.0 L809.8 509.3 L790.0 534.1 L780.0 552.7 L770.1 583.6 L763.9 634.4 L763.9 659.2 L766.4 676.6 L783.8 713.8 L794.9 731.1 L815.4 749.1 L838.9 760.2 L864.9 767.7 L894.7 767.7 L925.7 759.0 L946.7 746.6 L964.7 729.9 L977.1 712.5 L987.0 692.7 L994.4 665.4 L998.1 633.2 L998.1 603.5 L993.2 577.4 L980.8 545.2 L963.4 518.0 L939.3 495.0 L919.5 483.9 L895.9 477.7 L868.6 477.7ZM889.1 556.4 L913.3 557.0 L928.1 564.4 L942.4 577.4 L948.6 587.4 L956.0 608.4 L956.0 634.4 L952.3 646.8 L938.7 669.1 L923.2 683.4 L910.8 689.6 L882.3 690.8 L871.1 687.1 L860.0 679.7 L849.4 669.1 L839.5 651.8 L835.8 634.4 L835.8 623.3 L839.5 603.5 L845.7 587.4 L851.9 577.4 L867.4 563.2 L882.3 557.0 L888.5 557.0Z"/>
  <path fill="#E53125" fill-rule="evenodd" d="M706.3 690.8 L690.2 693.3 L650.6 693.3 L615.9 697.0 L602.2 695.8 L571.3 698.3 L472.1 698.3 L443.6 695.8 L335.8 697.0 L336.4 739.8 L341.4 762.1 L347.0 772.6 L366.8 778.8 L436.2 785.0 L454.8 791.2 L475.8 803.6 L483.9 810.4 L492.6 822.8 L499.4 827.1 L522.9 837.1 L531.6 835.8 L532.8 838.3 L537.8 839.5 L571.3 838.3 L589.8 832.1 L605.9 824.7 L611.5 814.1 L628.3 799.9 L662.9 786.2 L691.4 782.5 L758.4 778.8 L765.2 772.0 L767.7 760.8 L766.4 748.5 L746.6 716.2 L746.6 711.3 L739.2 693.9 L707.6 690.8Z"/>
  <path fill="#54B24C" fill-rule="evenodd" d="M120.2 501.2 L104.1 505.0 L97.9 509.9 L90.5 512.4 L76.2 525.4 L66.3 545.2 L62.6 583.6 L70.0 608.4 L84.3 625.2 L101.6 635.1 L131.4 642.5 L142.5 642.5 L165.4 638.2 L165.4 633.2 L161.7 632.0 L161.7 628.3 L165.4 627.0 L166.7 594.8 L163.6 590.5 L156.1 588.0 L148.1 581.2 L138.2 568.8 L134.4 557.6 L134.4 540.3 L146.8 506.8 L137.5 502.5 L121.4 501.2ZM185.9 518.6 L174.1 525.4 L165.4 540.3 L165.4 544.0 L173.5 555.8 L183.4 562.0 L193.3 564.4 L198.3 564.4 L209.4 558.2 L216.2 550.2 L220.0 539.0 L206.9 524.8 L193.3 518.6 L187.1 518.6Z"/>
  <path fill="#34B24F" fill-rule="evenodd" d="M503.1 175.3 L478.3 177.8 L406.4 179.1 L402.7 181.5 L354.4 180.3 L334.6 184.0 L334.0 187.1 L330.2 188.4 L331.5 194.5 L324.0 198.3 L321.6 218.1 L321.6 293.7 L326.5 316.0 L333.3 315.4 L334.6 324.0 L610.9 324.0 L651.8 326.5 L674.1 325.3 L685.3 327.8 L688.4 335.8 L687.1 454.8 L689.6 516.7 L687.1 544.0 L674.1 564.4 L658.0 566.9 L373.0 565.7 L353.2 566.9 L349.4 569.4 L346.3 576.2 L345.1 651.8 L350.7 657.4 L364.3 661.1 L432.5 661.1 L500.6 664.8 L592.3 663.6 L664.2 657.4 L729.9 656.1 L733.0 653.0 L731.7 617.1 L735.4 583.6 L737.9 579.9 L737.9 573.7 L745.4 547.7 L747.8 545.2 L747.8 541.5 L750.3 540.3 L750.3 535.3 L752.8 534.1 L757.7 520.4 L760.2 519.2 L765.2 506.8 L768.9 505.6 L775.1 495.7 L796.8 474.0 L832.1 453.5 L832.1 200.7 L829.6 197.0 L829.6 190.8 L826.5 187.7 L821.6 184.0 L807.9 181.5 L767.0 181.5 L765.8 184.0 L760.8 184.0 L759.6 180.3 L701.4 181.5 L690.2 179.1 L662.9 177.8 L612.1 179.1 L591.1 176.6 L504.3 175.3ZM254.0 565.7 L245.4 566.9 L238.5 577.4 L223.0 588.0 L221.8 591.7 L204.5 594.2 L197.6 597.3 L198.9 638.2 L196.4 640.6 L196.4 646.8 L252.8 647.5 L273.9 649.9 L312.3 649.9 L314.1 648.1 L315.4 568.8 L313.5 566.9 L294.9 565.7 L255.3 565.7ZM361.8 812.3 L363.7 856.3 L358.7 868.6 L356.3 884.8 L368.0 891.6 L392.8 891.6 L410.2 894.1 L453.5 894.1 L455.4 892.2 L457.9 886.0 L457.9 853.8 L455.4 831.5 L451.1 827.1 L431.2 818.5 L382.9 812.3 L363.1 812.3ZM711.3 813.5 L671.6 818.5 L648.7 827.8 L648.7 831.5 L646.2 832.7 L646.2 892.2 L648.1 894.1 L739.8 894.1 L751.5 891.0 L745.4 873.6 L741.6 835.2 L744.1 817.8 L739.8 813.5 L712.5 813.5Z"/>
  <path fill="#AE5026" fill-rule="evenodd" d="M90.5 141.9 L74.3 144.4 L60.7 149.3 L37.2 165.4 L21.7 182.2 L11.8 198.3 L8.1 206.9 L8.1 214.4 L5.6 215.6 L0.6 240.4 L0.6 260.2 L10.5 283.8 L22.3 296.8 L28.5 300.5 L33.5 300.5 L34.7 303.0 L44.6 303.0 L45.8 300.5 L49.6 300.5 L58.9 288.7 L58.9 277.6 L50.2 266.4 L45.2 249.1 L46.5 225.5 L50.2 214.4 L57.6 203.2 L57.6 198.3 L62.0 197.6 L65.1 194.5 L65.7 190.2 L71.9 190.2 L86.7 182.8 L106.6 181.5 L132.6 190.2 L142.5 200.1 L145.0 200.1 L146.2 197.6 L150.6 198.3 L150.6 200.7 L146.2 201.4 L145.6 204.5 L156.8 218.1 L159.2 233.0 L164.2 234.2 L164.2 236.7 L160.5 237.9 L160.5 252.8 L163.6 253.4 L164.2 256.5 L162.9 261.5 L158.0 262.7 L140.6 311.0 L140.6 316.0 L136.9 320.9 L129.5 349.4 L132.0 359.4 L127.0 360.6 L122.1 401.5 L122.1 408.9 L125.8 410.2 L125.8 425.0 L122.1 426.3 L122.1 463.4 L128.9 470.3 L140.0 470.3 L154.9 474.0 L160.5 472.1 L161.7 406.4 L167.9 365.6 L165.4 350.7 L171.6 348.2 L171.6 342.0 L181.5 311.0 L182.8 301.1 L185.3 299.9 L190.2 285.0 L190.2 278.8 L192.7 277.6 L197.6 260.2 L197.6 214.4 L193.9 200.7 L189.0 189.6 L186.5 188.4 L185.3 182.2 L164.8 160.5 L145.0 149.3 L128.9 144.4 L91.7 141.9ZM45.2 163.6 L50.2 163.6 L49.6 167.9 L45.8 167.9 L45.2 164.8ZM893.4 588.0 L879.2 594.8 L870.5 608.4 L866.8 620.8 L866.8 634.4 L870.5 644.4 L879.8 654.9 L886.0 656.1 L887.2 658.6 L900.9 658.6 L908.3 654.9 L920.1 641.9 L925.0 628.3 L925.0 614.6 L918.8 599.8 L908.3 590.5 L894.7 588.0ZM130.1 677.2 L124.5 681.5 L125.8 729.9 L123.3 775.7 L124.5 798.0 L122.1 822.8 L123.3 964.1 L128.3 975.2 L138.8 980.8 L147.5 979.6 L153.0 975.2 L156.8 967.8 L159.2 950.4 L159.2 691.4 L161.7 680.3 L159.9 677.2 L131.4 677.2Z"/>
</svg>
